/* XPM */
static char *girl_with_a_pearl_earring_resized[] = {
/* columns rows colors chars-per-pixel */
"64 64 244 2 ",
"   c #0C0D0E",
".  c #07070E",
"X  c #0F100F",
"o  c #0E0E13",
"O  c #070C1A",
"+  c #100F14",
"@  c #0F1014",
"#  c #0D121A",
"$  c #121316",
"%  c #161816",
"&  c #191A16",
"*  c #131519",
"=  c #15181A",
"-  c #1B1C1A",
";  c #181717",
":  c #12110F",
">  c #211D19",
",  c #1E201C",
"<  c #22231D",
"1  c #28251E",
"2  c #2C281F",
"3  c #312B1E",
"4  c #161A22",
"5  c #1B1C23",
"6  c #11162A",
"7  c #171A29",
"8  c #151B33",
"9  c #1B1E33",
"0  c #191E3A",
"q  c #161C3A",
"w  c #0D1224",
"e  c #1D2027",
"r  c #1C2234",
"t  c #1C233C",
"y  c #242422",
"u  c #262822",
"i  c #2C2A23",
"p  c #2B2C2A",
"a  c #262528",
"s  c #322C24",
"d  c #3B2E2A",
"f  c #372D29",
"g  c #353124",
"h  c #3B3325",
"j  c #34332C",
"k  c #3B332B",
"l  c #3C392E",
"z  c #222635",
"x  c #292B34",
"c  c #21263B",
"v  c #26293A",
"b  c #2F3039",
"n  c #343433",
"m  c #393736",
"M  c #201E26",
"N  c #43342D",
"B  c #433B2D",
"V  c #47352B",
"C  c #433B33",
"Z  c #4B3C32",
"A  c #453834",
"S  c #503831",
"D  c #6F3932",
"F  c #4C4434",
"G  c #494536",
"H  c #54433A",
"J  c #5A4A3D",
"K  c #564937",
"L  c #5C533C",
"P  c #56503C",
"I  c #52412C",
"U  c #6C5B3C",
"Y  c #63563D",
"T  c #68513C",
"R  c #73643D",
"E  c #1D2441",
"W  c #1E264B",
"Q  c #212742",
"!  c #222943",
"~  c #272D4B",
"^  c #2A304E",
"/  c #3A3B42",
"(  c #363846",
")  c #333959",
"_  c #293155",
"`  c #303A67",
"'  c #323E71",
"]  c #3D424B",
"[  c #3B4367",
"{  c #3C497F",
"}  c #494847",
"|  c #5A4C41",
" . c #5C5341",
".. c #5C574A",
"X. c #484B55",
"o. c #4E525A",
"O. c #565759",
"+. c #524F58",
"@. c #644D41",
"#. c #635543",
"$. c #645B44",
"%. c #6A5C43",
"&. c #655449",
"*. c #6C5C4C",
"=. c #68574A",
"-. c #745B4A",
";. c #675D53",
":. c #74544B",
">. c #6C6247",
",. c #736445",
"<. c #7B6A45",
"1. c #73644D",
"2. c #7B6C4C",
"3. c #76684A",
"4. c #6A6658",
"5. c #7C6D52",
"6. c #776756",
"7. c #7A7152",
"8. c #565965",
"9. c #495073",
"0. c #5D616E",
"q. c #686768",
"w. c #7A7364",
"e. c #777778",
"r. c #736E69",
"t. c #806A3F",
"y. c #8A5A4F",
"u. c #836D47",
"i. c #8A7143",
"p. c #8E7945",
"a. c #85724C",
"s. c #8A7649",
"d. c #957C49",
"f. c #947B46",
"g. c #836B54",
"h. c #816C59",
"j. c #897659",
"k. c #937A58",
"l. c #9F6157",
"z. c #887864",
"x. c #967C65",
"c. c #86776E",
"v. c #B27F6E",
"b. c #9C834A",
"n. c #9C8346",
"m. c #8D8159",
"M. c #9C8C5D",
"N. c #94845A",
"B. c #9E905A",
"V. c #A3864B",
"C. c #A4894C",
"Z. c #AA8C4B",
"A. c #A38747",
"S. c #B28E4C",
"D. c #B6924B",
"F. c #A98F56",
"G. c #8B8468",
"H. c #998568",
"J. c #9D9265",
"K. c #888478",
"L. c #988775",
"P. c #A58B6D",
"I. c #A38B66",
"U. c #AD9964",
"Y. c #A99869",
"T. c #B39E6C",
"R. c #B29C67",
"E. c #AA8F74",
"W. c #A89578",
"Q. c #B49876",
"!. c #B48A7C",
"~. c #B6A26A",
"^. c #B8A676",
"/. c #ACA27F",
"(. c #C3A97A",
"). c #C9B67B",
"_. c #C19F7A",
"`. c #3E4C83",
"'. c #495687",
"]. c #4F5A86",
"[. c #5D6996",
"{. c #5A6792",
"}. c #777B8B",
"|. c #626E99",
" X c #65719D",
".X c #6B7185",
"XX c #5B6AA1",
"oX c #6A78A6",
"OX c #707EAD",
"+X c #636FA3",
"@X c #7D8292",
"#X c #7884A8",
"$X c #7483B2",
"%X c #7988B6",
"&X c #878885",
"*X c #979586",
"=X c #8F9193",
"-X c #B99D87",
";X c #AF9D80",
":X c #9DA095",
">X c #B8A888",
",X c #AAAA98",
"<X c #BAB494",
"1X c #B8A390",
"2X c #848CA7",
"3X c #8B94AC",
"4X c #818EB5",
"5X c #8B96B6",
"6X c #949EBA",
"7X c #939CB6",
"8X c #9396A6",
"9X c #9AA2BD",
"0X c #96A1BD",
"qX c #BDB7A8",
"wX c #ADA7A3",
"eX c #C39D89",
"rX c #C8A787",
"tX c #C9BA85",
"yX c #C5AC95",
"uX c #CCB29C",
"iX c #C8B595",
"pX c #D2BC92",
"aX c #CAB5A5",
"sX c #D5BAA7",
"dX c #D3BCB1",
"fX c #CBC498",
"gX c #DACC96",
"hX c #D2C189",
"jX c #E9D692",
"kX c #DAC6AB",
"lX c #DBC6B6",
"zX c #CDC9B4",
"xX c #E4C7B6",
"cX c #E3D7B5",
"vX c #E9D3AD",
"bX c #F5E3A5",
"nX c #9AA5C2",
"mX c #D5D4CC",
"MX c #E4DED1",
"NX c #EACEC2",
"BX c #E9E6D8",
"VX c #F3F4EA",
"CX c #FEFDF2",
"ZX c #EEEEE3",
/* pixels */
"* * = = = * $ * * $ $ + $ + + + o o o o o o o o o O O + o @ o O o @ @   . . . @ @ @ @ * @ * $ * @ $ @ * $ * * * * $ $ $ $ $ $ $ ",
"* = = = # * $ $ $ $ $ $ + + o o o o o o o o + + o o o + o o o o o o   < G P F p , % @ @ $ * $ $ @ $ @ * * $ $ * $ $ $ $ $ $ $ $ ",
"* * * * * # $ $ $ $ $ + + + o + o o o o o o o O o o o o o o @ @ o * >.G.M.N.N.B.B.m.U h % $ $ $ @ * * * $ $ $ $ $ $ $ $ $ $ # $ ",
"* * * * * $ * * * * $ $ + + + + + o o o o o o + o o + + o @ o o $ ..a.3.>.Y fXjXjXgXhXj.G , $ $ * @ * $ $ $ # $ $ $ $ $ $ $ $ $ ",
"$ * * * * * * * * * * + + + * + $ + + + o o o @ o + $ $ +   @ u >.J.Y.>XY.m.J.tXgXgXgX^.2.K < $ $ $ $ @ $ @ * $ * + # $ $ $ $ $ ",
"* * * = * * * * * * * 4 * * * * $ + $ $ + $ o o $ + + $ : Z L.iXgXjXbX).Y.Y.^.Y.Y.^.~.(.a.B j < @ $ $ $ @ * * @ * * + $ # $ $ $ ",
"= * * # * * * * * + + + * * + * $ $ + + + o o o o > n +.0.}.=X&X@XG.<XfXjX^.G.J.J.>.,.U.U.l - u - $ $ $ * * $ * * + $ $ $ $ $ # ",
"* * * * * = * * * * * * * + * + $ $ + + + $ o y +.@X8X5X3X#XoXOX$X{.[ 9.*XvX^.N.G.J.7.2.B.N.K , - ; $ $ @ $ $ * * * # $ $ $ $ $ ",
"= = # * # = * # = * * * $ $ $ * * + + + + o m 3XnX9X7X8X2X4X%X4X$X$X[.`.[ { *X/.Y.m.7.7.Y a.2.G > ; $ * * * # $ * + $ # $ $ $ $ ",
"= = # # = = = = * * * # $ $ $ # + + + * $ / 5XnX6X9X9X6X5X%XOX%XoX#X#XXX].{ [ 0.G.~.7.P 4.G L G i - = + $ + + * + * $ $ $ $ + $ ",
"= * # , = = = * = * = $ $ $ $ $ $ + * X m 9XnX6X6X9X9X9X5X%XOXOX$XoX X+XXX{.{ [ [ 7.J.P G G L 1.< y ; $ $ $ $ * * $ $ $ $ $ $ # ",
"# * * * # = = # * * * * $ $ $ $ + * $ z #XnXnXnX9X6X6X5X4X%XOXoX$X#XoX X X$X9.] ~ r ..j.G , G 7.< - = $ $ $ $ $ * $ $ $ $ $ $ $ ",
"# = # # * 4 * * * * * * $ + * $ $ + = @XnX7X6X6X6X6X7X5X4X4X%XOXoX$XXX[.|.#X|.[ ^ E r G >.j h m.f , , * $ + * $ $ + $ $ $ * + + ",
"= = % = * * = * * * + + + # + * * o X.nX5X9X6X6X7X4X3X4XOXOXOX%X$X+XoXoX|.{.{.{ _ ^ E r m G I U.K 1 i @ + # $ $ $ $ $ $ # * * * ",
"= # # = = * * * * * * * * * * * * ; }.5X2X2X6X7X6X3X7X2X'.XXOXOX$X$X|.XX|.|.[ r ^ ^ ~ c t n L ).Y < G * # o $ $ $ $ + * * + * + ",
"% = % = * 4 * * * * + * * * * * + ( 2X}.8X8X3X5X4X4X2X|.'.'.XX+XXX$X X[ '.XX[ 8 v ~ ! ! c r G (.>.> F < o $ o + $ # * * * * * * ",
"% , % * # , # = * * = ; * * 4 * $ b r.aXlXlXqXwX2XOX$X].].9.[ '.`.XX[.W W ) ~ t r c c c t t m ~.>.< F k + + + + $ $ # $ * * $ $ ",
"# = % % % # = * $ = = * * * * + $ N zXNXlXNXlXsX1X*X}.|.{.OX) ^ ` [ `.t t r t W t c v c t t n T.U & B F 5 + + * $ $ $ $ $ $ + # ",
"= * @ * * * * # ; = * * + = ; * X x.NXlXlXlXzXaXaXuXW.q.` oX9.9 ~ _ _ ~ E t W ~ ~ E r c ! r e J.R & B F 4 * $ @ $ $ $ $ * + * * ",
"= = * * * * @ * * * * * * = * $ j yXvXlXxXlXsXuXuXuXrXQ.1.) ) Q r t E W E t E ~ ! E t r r t r B.<.< j K 5 = $ $ $ $ $ $ * $ * * ",
"$ * $ = * @ $ $ $ ; * * * ; * @ ..uX>XlXcXkXuXuXyXyXrXeXQ.6.b Q r e r 8 t t 8 E c ! ! ! t r 4 N.a.< g K - = * $ + + $ $ $ $ + * ",
"* * * $ # % $ $ $ * ; * * * * * C x.P.>XxXaX1XQ.P.E.Q.Q.E.x.6.n r t w w 8 t 8 6 8 t ! ~ ! ! 6 4.k.s 2 U y @ $ $ $ # $ $ $ * $ $ ",
"* @ = * $ * $ $ ; ; * * = * * - > r.c.6.kXuXx.j.h.k.E.Q.Q.P.6.A i x t r 8 t q 6 8 q E E c c w 4.B.N < u.j * $ $ * $ $ $ + * $ # ",
"$ * $ = @ * @ $ $ $ $ * = & ; ; - aX} s dX1X5.5.x.E.L.h.x.H.:.N i < r r t q r 8 6 8 E E t t O ..U.K > R F 5 = = * $ $ $ * + * + ",
"* * * $ $ $ $ $ $ $ $ $ & & * $ A -Xz.5.lX;X-.k.E.MXq.> S *.| N C i M v c r 8 r 8 8 t E E t O G ~.L , U P e 7 * $ * $ # $ $ + $ ",
"@ # * = * * $ $ @ $ $ * * ; -   w.sXE.yXNXx.:.x.rXcX;.a f A S A V d s M v c 7 9 0 0 q 0 q 8 O C R.U , K #.y 5 = $ $ $ $ $ $ # $ ",
"$ * * * * * $ $ $ $ $ $ * ; &   c.NXaXlXsXj.y.P.(.Q.x.&.A -.j.:.S N f i a c 8 9 r t 0 0 6 6 O l U.M.g I L p 7 4 $ $ $ $ $ $ $ $ ",
"* = = = ; & $ * $ $ $ * ; * & X P.xXsXxX-Xg.1.P.rXQ.P.z.x.E.E.z.| N d d i a c 9 9 t r 8 8 6 o j U.U.F B L a z * # $ $ $ $ $ $ $ ",
"* * * $ = * $ * $ $ $ $ $ * & @ c.NXsXsXx.:.:.x.rXrXrXeXeX!.x.6.S 3 h d f i r Q E r 7 6 r 6 * i B.U.K h  .a b 4 $ $ # $ # $ $ $ ",
"* * $ * * ; $ * $ $ $ $ * = ;   c.xXsXyXg.@.J I.(.rXrXeX-XE.j.&.N f d f s i 2 M c c 9 6 6 = % , N.~.L h >.y b 4 o $ + $ $ $ + # ",
"+ * * $ % & & : $ $ # $ $ ; ;   &.xXsXx.:.@.S k.rXrXrX_.Q.I.6.S d d N d f s > > p z 8 = # % , , m.~.U g z.< b 7 + $ $ $ + * + * ",
"+ $ * $ $ $ * $ $ $ $ o $ ; & $ N xXuXD V D S S _.(._.R.x.g.:.N d N N N h s s d i 7 = * ; = % , m.~.,.3 Y.f x x w $ $ $ * + * + ",
"$ $ * $ & ; $ $ $ $ $ $ $ $ ; $ 1 uXNX1XS N S T _._.R.I.k.6.@.N N N N h d f k d 1 = $ & ; $ $ % a.U.<.3 <XP , ] , # = @ $ @ $ * ",
"@ $ $ $ $ : ; $ $ $ $ $ $ $ $ = ; *XlXxX!.:.j.x.!.Q.P.H.j.-.H A N N N k s d N p % $ $ : * ; * & B.).<.s fXm.= X.r # @ @ $ * * @ ",
"@ $ $ % & ; & $ $ $ $ $ $ $ * & o y.eXv.x.2.z.x.I.P.H.j.g.&.H Z S V V N s > M ; $ : : % $ * $ ; ~.jXs.s <X/., ] m # @ * $ # @ * ",
"$ $ $ $ ; ; * * $ * $ $ $ * * ; + m -XD D :.D :.g.H.x.h.:.| H H H Z Z A s i 1 > ; : $ % ; $ ; ; T.jXN.g >XfXe b X.4 @ * $ $ $ * ",
"$ @ % $ * ; $ * ; ; $ $ $ $ * ; = ; x.v.l.y.D D y.x.j.1.&.| H J J J H B d A m y ; $ % $ # @ % X J.jXY.B L.kXl v X.5 @ $ $ $ * $ ",
"$ $ ; * ; $ $ $ $ $ $ $ $ + $ * = + ..eX-Xy.D :.z.H.z.*.&.@.| J #.| | N s wX4.; ; ; $ ; % * , % J.jXU.I m.cX..e 8.z @ $ * @ $ * ",
"@ $ $ * * * * $ $ $ $ $ $ $ $ * ; $ i sX1Xh.:.:.2.z.h.*.=.&.#.&.*.#.Z f j ;.} p , @ X @ % , , X m.).U.R 4.cX7.e o.( # * $ # $ $ ",
"$ $ * $ * ; $ $ $ $ $ $ $ * $ $ = = o W.xXyXH.6.-.6.6.*.=.=.*.*.#.Z k A A m ..m y j / } } G m , >.~.U.n.L cXG., X.o.* = $ $ $ $ ",
"= $ $ * * $ * $ $ $ $ $ $ $ $ $ = $ $ l rXuXE.h.;.*.*.*.*.*.=.| F A m k f s A +.r.&XK.&XK.4.} l L U.B.~.Y fXW., ( O.e @ * = $ $ ",
"$ $ * $ * $ $ $ $ o # $ $ $ $ $ ; ; ; : y 4.z.4.@.| Z | | Z Z | Z Z | ;.e.,XmXmXmXmX&X4.4...m e L ~.C.~.U >X<Xe b O.x @ = $ * $ ",
"* $ * * $ $ $ $ + $ $ $ $ + $ $ $ ; ; $ o o > y y *   C L.6.T  .K.aXmXZXCXCXZXzX&X} j u , u u = L ).B.~.R G.fXj z X.( # ; * * @ ",
"$ $ * * $ $ $ $ # $ $ @ $ # $ $ $ ; : $ $ $ $ $ @ @ * $ G.;XE.qXVXVXVXZXmX=X4.C 1 , , , , y u , l U.~.U.2.2.gXG a } o.# * $ $ * ",
"$ $ $ * $ $ * $ $ # $ $ $ $ $ $ + * * * $ $ * * * $ * X j qXmXBXVXVXzXw.} i , u 1 , , < , , , - i M.~.U.R Y fX$.e X.8.e % $ % $ ",
"$ $ $ $ * $ * $ $ o $ $ $ o # $ + + * $ $ * = $ $ $ *   K.BXMXZXMX*X-.Y G n j u , , e , , , , - < M.Y.~.p.L >Xw.= 8.8.r @ % $ @ ",
"# + $ @ $ $ $ $ $ $ $ $ $ o o $ + $ $ $ $ * * $ $ ; . O.BXVXMX>Xb.p.a.>.m j p u < < , , , e < - % m.^.~.U.,.z.G., X.q.( @ % = $ ",
"+ + + o # $ $ $ $ $ @ o # $ @ o $ o + $ $ $ + $ * X j MXCXzXN.n.Z.F.f.1.C j u , , e , , = , < - X 2.tX^.U.m.P G.= } O.0.4 ; ; $ ",
"+ + o + o $ $ $ $ $ # + + $ $ $ $ @ o + $ $ $ $ =   =XCXqXs.Z.D.C.b.2.$.l i u , - - , % , , , , $ ,.hX^.U.J.K r.a / ] K.] * * * ",
"+ o o $ $ $ # + + # $ $ + + $ o $ o o $ o o $ $ $ 5 mXzX<.n.D.Z.b.n.U G l j u , , & = , , , , , % Y hX).Y.Y.K &X/ } 4.>X8.4 % # ",
"o o + + + o o o + o + o $ + $ o $ o + + $ o o $   j qXu.i.V.A.A.Z.n.L G / g < , - - = , , , , , % P hX).^.B. .*X/ +.,XfXq.9 % % ",
"o + + $ $ o $ $ o + $ $ $ # $ $ + + + o o o o + o l a.u.f.b.V.Z.b.n.s.Y l e e y - , , % , , , , X I hX).Y.m...K.X.+.<XfX&Xz % % ",
"o + + + + + $ + o $ $ $ o o o o + + $ o o @ o o * %.d.p.n.S.Z.n.p.i.R >.j u u , , , - - , , % , X G ).^.;X*XX.@X8.] <XfX*X) - $ ",
"o + + + $ * + + + o o $ o o + + o o o $ $ o $ . l a.V.n.b.f.u.<.a.f.p.i.Y < , , , , 5 , , % % ; X n *X=X:X,Xo.@X&X^ W.fX*XX., $ ",
"o o + + $ $ $ + # + @ + + o o o o + o $ o @ o @  .2.b.d.,.2.<.f.C.C.n.n.p.h 1 , < , - & , , = = @ b &X:X,X<Xo.e.:X] K.fX<X] = ; ",
"o o + + + + $ $ $ o $ o o + o + o + o + o + o s $.2.u.#.*.2.s.S.D.Z.Z.A.p.l u g g i 1 , , & - % X ( =X=X:XfX8.8.e.] e.<Xr.a ; $ ",
"o + + + $ $ $ $ $ o $ o o + + o $ o o + + o $ J >.3.*.>.3.s.p.b.A.n.A.A.i.B y s h g i 2 < , ; * O b @X}.e.,Xq.z = = p p @ * ; ; ",
"o o o + o $ $ @ @ @ o o + + o o o + o o + o 1 #.1.1.6.7.a.s.n.n.p.s.s.p.i.J i i h g 3 g 3 , , =   b .X.X.X=X8.r , # @ @ % ; % % ",
"o o o + # o $ o @ $ o o + + o o + o o o $ . i *.1.1.2.p.s.b.b.d.i.a.a.u.i.R B i g g g u u 2 1 , X ( .Xe.}.=XO.9 , @ = = % ; % & ",
"+ + + o o $ + + o o o o + o o + o o o + $ o s 1.5.7.m.b.b.b.d.a.3.2.7.<.u.t.J h 1 < u u 1 2 2 u % r 9.0.8.o.( 4 # # @ * ; ; % % ",
"o o o + + + + o o o o + o o o o o + o o $   g 5.7.s.C.C.V.C.a.-.>.%.3.1.,.t.T V g , < 1 1 i i i < , = * o o * @ * * $ $ ; % % % ",
"+ + o + + + + +   o o o o o   o +   o o @ o Y 5.a.N.S.D.D.C.<.%.%.%.,.1.Y R U I j i < u < < 1 2 i < , @ $ * $ * * $ $ $ $ % & : ",
"+ + + + + + + o o o o o + + + + + + o @ @ 2 s.g.i.v.D.D.S.d.,.#. .#.#.$.Y U R H g u < , < , < u u u , = $ $ $ $ * * * $ $ & % $ ",
"+ + o o + + + o o o   o + + + + o o o $ $ U s.2.u.F.D.S.V.d.U L  . . . . .T U F i , 1 < 1 , , g < < u , * $ $ $ * $ * $ * $ % : "
};
