/* XPM */
static char *Mona_Lisa_resized[] = {
/* columns rows colors chars-per-pixel */
"64 64 252 2 ",
"   c #1B0E1C",
".  c #160916",
"X  c #1D121D",
"o  c #16111F",
"O  c #0F0413",
"+  c #23131C",
"@  c #2B151C",
"#  c #2B191C",
"$  c #271618",
"%  c #33151C",
"&  c #331B1C",
"*  c #3B1B1C",
"=  c #361A18",
"-  c #250E14",
";  c #3C231D",
":  c #38231A",
">  c #30271F",
",  c #160F22",
"<  c #151223",
"1  c #1C1423",
"2  c #1C152A",
"3  c #1D182D",
"4  c #1C1825",
"5  c #1D1931",
"6  c #231523",
"7  c #231A24",
"8  c #2B1B23",
"9  c #241A2B",
"0  c #2A1D2A",
"q  c #261625",
"w  c #341C22",
"e  c #3A1C23",
"r  c #271F31",
"t  c #210F21",
"y  c #2D2224",
"u  c #2D212C",
"i  c #2D2C25",
"p  c #342424",
"a  c #3B2524",
"s  c #342924",
"d  c #3C2B25",
"f  c #33242B",
"g  c #3C2B29",
"h  c #38272A",
"j  c #39372A",
"k  c #2D2333",
"l  c #282234",
"z  c #322533",
"x  c #3C2B33",
"c  c #372A37",
"v  c #3D3B32",
"b  c #2C312C",
"n  c #441C1C",
"m  c #42241B",
"M  c #452A1C",
"N  c #4C2D1C",
"B  c #49241A",
"V  c #552B1C",
"C  c #59351C",
"Z  c #4A321D",
"A  c #653A1C",
"S  c #602F1E",
"D  c #441E21",
"F  c #432C24",
"G  c #4B2D23",
"H  c #432E2B",
"J  c #462524",
"K  c #433225",
"L  c #4B3224",
"P  c #45322A",
"I  c #4A352A",
"U  c #483B29",
"Y  c #533323",
"T  c #533B24",
"R  c #5B3C23",
"E  c #523C2A",
"W  c #5A392A",
"Q  c #472D32",
"!  c #473734",
"~  c #573735",
"^  c #532B2B",
"/  c #623C22",
"(  c #663829",
")  c #7A3B2A",
"_  c #653937",
"`  c #703F34",
"'  c #3D4637",
"]  c #3D402F",
"[  c #6B451D",
"{  c #76491B",
"}  c #46432B",
"|  c #54422A",
" . c #5B4428",
".. c #444433",
"X. c #4B4532",
"o. c #4C4B34",
"O. c #434C3B",
"+. c #4B4C3A",
"@. c #444837",
"#. c #524E3A",
"$. c #584735",
"%. c #45523D",
"&. c #4C533C",
"*. c #4C563A",
"=. c #53543B",
"-. c #545A3C",
";. c #5B5C3D",
":. c #575336",
">. c #5F542E",
",. c #634324",
"<. c #634A2B",
"1. c #694628",
"2. c #734B25",
"3. c #734C2C",
"4. c #784729",
"5. c #6B532B",
"6. c #73522C",
"7. c #7C532B",
"8. c #7D5B2C",
"9. c #785626",
"0. c #684737",
"q. c #754835",
"w. c #685836",
"e. c #775834",
"r. c #5C623E",
"t. c #74602D",
"y. c #67653D",
"u. c #786939",
"i. c #7E713A",
"p. c #5F401F",
"a. c #3E5142",
"s. c #494E40",
"d. c #455442",
"f. c #4C5443",
"g. c #4D5B45",
"h. c #4B584A",
"j. c #525442",
"k. c #535B43",
"l. c #585B48",
"z. c #4F574D",
"x. c #6B5E43",
"c. c #4D6248",
"v. c #5B644A",
"b. c #586549",
"n. c #566553",
"m. c #5E7152",
"M. c #636B4B",
"N. c #676847",
"B. c #766D45",
"V. c #6B734B",
"C. c #78784A",
"Z. c #646B55",
"A. c #687654",
"S. c #737A53",
"D. c #533340",
"F. c #86551E",
"G. c #834E1B",
"H. c #87482A",
"J. c #865A29",
"K. c #965B2B",
"L. c #845935",
"P. c #8D4C2E",
"I. c #8B642C",
"U. c #886529",
"Y. c #94692D",
"T. c #9A742D",
"R. c #8B6638",
"E. c #946B32",
"W. c #966C36",
"Q. c #86753A",
"!. c #987536",
"~. c #A67A38",
"^. c #A6762C",
"/. c #887946",
"(. c #987641",
"). c #873F28",
"_. c #7B834E",
"`. c #76814E",
"'. c #7C8553",
"]. c #7E8954",
"[. c #7D8A5B",
"{. c #788457",
"}. c #6B8058",
"|. c #7B8A62",
" X c #AB833D",
".X c #AB8536",
"XX c #B68939",
"oX c #B58A35",
"OX c #C59C3D",
"+X c #82854D",
"@X c #87884C",
"#X c #968647",
"$X c #838553",
"%X c #848B54",
"&X c #8B8C54",
"*X c #848C5A",
"=X c #8A8E5A",
"-X c #868659",
";X c #958D56",
":X c #85905C",
">X c #8C925C",
",X c #8C9155",
"<X c #93955D",
"1X c #95985C",
"2X c #9B9B5D",
"3X c #979656",
"4X c #B58B42",
"5X c #BC9447",
"6X c #A79250",
"7X c #ABA75D",
"8X c #848D62",
"9X c #8B9463",
"0X c #8B9765",
"qX c #929763",
"wX c #949A65",
"eX c #9B9C63",
"rX c #9A9E6A",
"tX c #959D6A",
"yX c #A09F64",
"uX c #9DA26C",
"iX c #9DA066",
"pX c #9BA374",
"aX c #A3A364",
"sX c #A3A46B",
"dX c #AAA969",
"fX c #ABAC74",
"gX c #A5A875",
"hX c #B4B374",
"jX c #B3AD75",
"kX c #C49946",
"lX c #CB9D4A",
"zX c #CCA44C",
"xX c #CAA348",
"cX c #D3A94E",
"vX c #CBA653",
"bX c #D5AB55",
"nX c #DCB45C",
"mX c #DAB557",
"MX c #D8B34F",
"NX c #E3BC5D",
"BX c #E3B955",
"VX c #DCB761",
"CX c #E4BD63",
"ZX c #E5C25D",
"AX c #E5C264",
"SX c #E9C465",
"DX c #EAC86A",
"FX c #ECCB72",
"GX c #EDCE78",
"HX c #ECD27A",
"JX c #F0D075",
"KX c #CEC481",
/* pixels */
"{.'.`.'._._._.].[.[.[.]._._._._._.`.`.`.'._._.]._.i._.].].].].].*X|.[.].S.`.{.{.{.|.[.[.].'.`.].].'.'.'.{.{.-X|.[.[.|.{.{.{.].*X",
"{.'.`.`.]._.].[.[.].].%X:X:X:X+X+X].]._.].%X%X+X+X_.'.$X].[.[.].:X8X*X$X$X`.'.].[.|.|.[.].'._._.].'.'.$X].].|.|.[.|.8X*X$X%X:X8X",
"].].].%X:X%X8X[.].].[.[.%X].%X%X@X%X%X+X@X+X%X&X@X+X&X&X%X@X_.i.C./.$X%X&X$X'.'.].*X%X%X].`.+X+X$X$X/.{.[.[.[.:X$X*X9X*X&X@X:X:X",
"].:X>X>X:X%X:X%X,X].,X%X*X%X,X:X,X,X+X%X%X,X%X&X:X&X3X/.9.p.C C N N Z | w.C.%X'.[.%X:X:X[.%X+X+X$X%X$X[.*X*X*X>X=X:X9X,X&X%X&X>X",
"[.>X0X0X[.%X&X,X=X=X=X&X=X=X<XqX>X9X,X,X,X,X=X&X>X;Xt.C A A Z Z m : : m m m >.@X%X*X:X*X%X+X].%X*X*X*X8X8X%X:X,X=X<X<X<X,X,X>X>X",
":X:X:X:X:X,X>X<X=X=X=X>X>XqX<X<X<X>X<X1X3X<XqX<X;X5.p.{ { [ p.C C m : $ : = - Z @X,X,X>X:X:X$X,X*X9X8X0X0X>X,X<X;X<X<X<X>X,X<X0X",
":X:X8X:X>X>X1XwXqXqXqX9XwXwXwXqX>X<X1X1X1X<XqXqX5.[ { { F.{ [ [ C Z : : $ $ $ - K ,X,XqX>X:X[.:X%X*X9X0XwXqX1X1X<X3X<X<X;XqX9XqX",
"0XtXtXtXwXeXwXeXtXqX<XqXwXqXiXwXqX<XeXwXwXeXrX/.C { U..XoX.XU.t.[ N M : $ - - - . o.2X9X>X0X>X>X:X9X9X0XqX0XiX2X1XeX<X<X3X<XqXqX",
"9XuXpXuXwXpXeXqXqX<X1X1XeXrXeXeXwX1XeXeXrXpX9XC U.4XvXbXMXcXOXoXT.{ Z : # $ $ - X . u.0X0XtX0X0X>XwX0X0XeXeXeXwXeX1X<X<X1XqX<XeX",
">X0X0XwXtXuXeXeXeXeX2XeXaXrXyXeXeXaXeXaXpXpXe.[ XXbXCXCXCXnXMXxX.XF.{ N = $   - + . > eXtX0X0XtXtX0XuXuXuXtXeXuXrXrXwX<X3XeX1XeX",
"<XwXqX<XtXrXpXpXsXyXyXaXyXsXyXuXuXeXaXpXpX8XB U.zXCXCXSXAXCXmXcXOX.X{ A m = -       . N.tX0X0XwXuXuXuXuXuXtXuXsXsXpXsXeX2X2X2XeX",
"uXuXtXeXiXsXgXgXgXsXsXsXaXsXuXgXgXsXuXpXgXe.m !.zXVXCXNXCXNXmXbXoX.XF.[ N = % + X X O U uX>X:XwX1X<XuXuXtXeXiXsXgXgXsXyXyX2X2XsX",
"uXuXuXiXqXgXgXgXgXfXfXfXsXyXsXgXsXiXsXfX;X1.N !.vXnXnXbXnXnXbXkXoX.XT.9.[ : - X - . O # S.`.,X].%X:X0XwX1XuXiXsXaXgXaXaXyX2XyXsX",
"|.iX0X].=XuXpXgXfXsXdXjXfXsXyXgXsXsXfXdXU.B Y  XvXbXnXnXnXnXbXzXOXoXoXT.J.N @ @ +   . . -.V.C.`.`.9X0X:X>XiXiXdXsXdXsX7XaXyXwXeX",
"`.`.'._.C.qXrX7X2X3XqXfXfXgXgXfXjXhXhXyX1.e W 4XvXbXVXnXNXnXcXzXxX5XXX.XU.N @ +   X   . o.r.y.y.}.`.{.[.[.iXdXdXsXdXdXdX7X2X=XeX",
"V.b.B.C.C.C.@X@X@X@X[.8X0XgXjXhXjXhXhX;X( e ~ 5XlX5XzXbXmXkX^.~..X.X.XQ.9.N % +   1 + . ] *.r.V.V.}.}.{.A.,XaXaXdX7XjXjX7X3X$X9X",
"b.b.N.C.C./.S.B.C.B.V.V.C._.pXgXfXjXgXB. .J W R.W.K.W.xXlXJ.4.Y.Y.3./ / 2.V % @ t 1 X   b %.*.-.m.}.m.}.V._.2XdXdX7XhXhXdX1X<X[.",
"b.b.M.V.V.S.B.N.u.b.r.V.C.V.0XhXgXgXrXV.^ ^ W 3.R.H.P.kX5X2.^.~.2.2.( J.E./ w w t , +   b *.%.%.c.b.m.c.c.`.3XdXhX7XdXsX7X3X>X|.",
"b.N.M.M.C.V.N.N.B.r.r.y.C.V.eXeXC.S.rXB.B n ( 4XkXW.W.bX5XJ.XXOX~.T.4XkX~.,.% q 6   + t i *.%.%.c.c.c.c.b.m.1XfXdXdXfXsX6X3X$X|.",
"v.v.A.v.V.V.y.y.y.*.r.r.y.r.C./.N.N.S.e.V % 1.bXlXlXlXbX5XT.kXzXzXcXlXkXT.C @ 6 6 ,   + 7 ] ' *.r.c.c.d.c.b.{.dXdXdXiX2XiX3X*X|.",
"x.v.b.n.m.r.;.r.o.-.r.o.=.*.o.w.y.:.;.w.^ % ( kXnXVXbXbXlX~.lXnXCXBXlX~.U.N @ @ 6 + X 6 4 &.-.*.-.c.d.a.a.*.m.:X2XyX2X2XeX<X*X8X",
"+.=.k.g.l.-.:.b.=.-.-.%.%.o.o.#.:.#.X.E B D V kXbXbXvXbXlX~.lXbXbXbXkX^.{ m @ q 8 q 1 6 $ r.b.N.V.}.}.}.}.}.}.|.>X;X;X&X@X$X-X-X",
"! @.g.&.&.-.:.N.y.-.*.*.X.&.:.X.o.X.P H B n n ^.bXbXkXVXlX(.kXvXvXlX~.K.,.n @ @ 8 7 X 1 X b ] ' *.c.c.n.m.}.}.}.[.*XS.A.v.M./.S.",
"' ! f.=.&.;.*.*.-.r.;.=.&.:.#.#.o...P J D n % P.lXlX4X5XK.q.~.nXlXXX!.H./ ; @ + 8 6 1 1 4 i j v ' ' a.' ' a.c.m.b.m.b.m.k.h.h.h.",
"v v O.k.&.-.=.:.o.=.l.=.f.#.#.#.o...P d e e % ) ~.kXMX~.A 4.4XkXXX~.I.7./ * @ @ 8 6 6 1 7 s v ' ' ' a.' ' d.%.%.%.g.l.b.b.j.k.&.",
"v ! +.f.&.=.#.:.#.=.-.#.#.=.:.o.X.} U a D B % ( ~.~.XXkXY.E.I.I.~.4XE.7./ * @ # 7 6 + < + i ' @.' ' d.' O.O.%.a.g.c.M.v.l.f.s.j.",
"v ..j.j.=.#.:.:.k.=.+.#.=.o.o.o.} ....H J n % n ~.kXXXkX~.K.J.4X5X4XL.2.C * @ @ # 6 X 1 7 p ] @.O.d.' d.%.%.g.g.c.v.m.c.f.s.j.j.",
"j ! #.#.$.#.:.=.#.X.X.X...X.o.o.+.*.X.P D n * % ( ~.lXXXW.W.~.~.~.W.9./ N = @ 8 8 +   1 7 s ..@.@.%.d.f.d.f.h.d.h.g.O.&.f.f.j.s.",
"! ..+.#.#.#.#.X.X.X.o.+.f.=.=.=.-.;.=.E J % n * % ( 4XbXlX5X~.!.E.7./ C M = @ # + + X 1 7 p o.%.o.&.-.-.%.O.d.d.d.O.+.f.f.z.l.j.",
"} j v U o.=.=.X.X.X.o.X.+.j.j.=.-.l.w.E F n n n * % 4.lXbXkX~.J.2./ A Y * # @ $ 6 # + 4 7 y } *.=.r.y.b.f.*.d.h.h.d.d.h.z.z.f.s.",
"U } v j ! =.#.o.o.} ..} X.+.+.f.l.v.N.I J D * * % % w 4.W.I.7./ C R N ; ; = $ @ + 8 + 4 7 # v g.o.%.g.g.d.g.&.f.g.O.' h.z.n.z.z.",
"v } ] v v *.=.+.o.X.@.%.=.=.k.l.N.S.V.E J * % % - % w w B V Y Y G J m F Z m ; $ # + X X + 7 b ' ..O.d.d.' O.@.O.+.@.! +.z.n.v.v.",
"j ! b ' X.@.j.z.h.j.h.l.n.n.Z.S.A.V.V.=.a e * % % @ & # L 2.R T G N Z R R R Z = @ - + + $ 1 b @.@.' ' r.*.@.@.o.' ' O.O.s.j.s.z.",
"j v b v v ! =.f.z.k.n.l.n.m.Z.Z.Z.Z.N.y.H e D n & & p & L !.R.5. .[ / 2.9.2.C = = $ + + # + i ' *.*.-.*.*.*.%.*.&.%.-.-.=.&.s.z.",
"' ....j ..j.#.l.M.v.N.Z.Z.Z.b.Z.Z.N.N.v.I D e * * & : ; M (.4XR.J.9.9.J.U.U.{ N = @ + @ # X X ] *.r.y.b.m.b.V.M.v.y.i./.B.x.l.Z.",
"s.s.f.j.z.l.v.v.w.:.;.$.=.Z.N.N.Z.N.r.o.F e e * & & a m L !.4X6XT.!.T.!..XT.F.C = = & * m X X > > j ] ] *.y.r.r.Q.#Xi.u.w.u.x.x.",
"z.z.h.z.n.n.v.t.6.<.| <.| U $.>.| | K } w w % % & ; F R Q.!.5X5XXX6X X5X.XoXT.[ B B B M M 6 X $ > > } > } } i ] i. XQ.u.y.u.x.l.",
"z.z.z.h.n.b.w.t.5. .>.w.>.d d K L U s ; w w w * J N 7.!.5XvXkX5X5X5X5X5XxXXXoXF.V n C N J @ 8 6 > j > ] } o.} :.i.(.u.w.y.Q.x.j.",
"+.z.n.s.o.w.9.5.p.p.<.<. .> K > d } d > 8 e * J C U..XkXvXmXcXcXMXvXmXvXxXxXXXU.C B A T ; w 8 8 > U o.y.Q._.@X#X#XQ.u.y.x.x.l.l.",
"` $.$.! :.9.9.5.5.5.t.5.T d T > d E : 7 8 w * V J.5XvXVXnXnXnXmXmXmXVXmXMXxXoXF.S C ,.C : & & & $ : Z } t.3X.X#Xi.Q.i.B.w.x.x.x.",
"q.( ( E 0.7.6.6.t.U.9.[ U Z | > > T M 8 8 e D A .XvXnXNXAXAXSXNXBXNXAXmXMXxXOXF.{ S A N # & : * e @ > U  .i.@X#X#XQ.!.Q.i././.B.",
"1.1.3.1.6.8.t.t.t.t.9.p. .C p.T L ,.m 6 8 D S P.xXmXVXDXDXAXNXBXZXZXAXmXMXxXoXF.A S A B $ # & Y G m & d >.5.t.u.Q.!.u.Q.Q./.B.N.",
"3.1.6.1.<.R.!.U.U.U.t.[ p.p.<.p.C F 6 8 n S { ^.cXZXAXDXSXAXZXCXZXDXAXmXMXxXoX{ A C [ : X : C 1.Y C & $ d [ e.i.@X#Xi./././.(./.",
"0.W 5.W W e.U..XT.T.U.9.,.>.{ p.a 1 @ 8 B F.K.^.mXZXAXDXDXDXAXCXAXDXAXmXMXOXoXG.A A C m C 1.[ 2.,.R K y # > ,.3.e.Q.,X#X6X7X6X6X",
"1.1.( Y W 1.W 6.Q.!.U.8.[ [ [ a 7 8 w 8 / ^.oXcXZXAXSXDXDXDXFXDXAXDXAXZXMXzXoXG.A A [ J.U.I.E.!.I.3.T e w 9 q J W ( q.x.x.B././.",
"q.3.6.2.3.3.W W 3.I.U.U.U.J.^ 9 0 e & e H.XXcXNXZXDXSXSXDXFXJXFXDXFXDXAXMXxX^.G.{ { 9.I.^..XE.8.,.I a 0 t 9 9 q I ( ~ ~ $.x.B./.",
"q.3.L.3.( q.4.1.3.7.2.9.T.8.0 q 0 f 8 m J.OXBXZXDXZXCXCXDXFXHXHXHXDXFXDXMXOXoXY.F.U.T.T.9.Y M * # 7 6 6 6 1 0 9 e ( ~ ~ ^ x./.6X",
"7.1.1.1.2.L.e.3.8.9.J.I.T.L q 9 8 e & G A ^.ZXSXDXZXVXCXDXJXHXHXHXHXHXDXZXxX.XU.J.U.,.F ; a ; 8 + 1 1 1 2 2 9 9 t Q ^ ~ _ D._ L.",
"q.) 4.P.P.W.Y.R.T.T.T.K.Q 0 q q p w a Y 3.9.!.XXNXmXmXDXJXFXHXHXHXHXDXDXcX.XU.9.C J : a p 7 1 4 < < < < 2 3 3 0 9 k _ ) _ _ ` ` ",
"4.H.K.K.K.K.P.K.L.J.7.Q q f q 0 h p F R 1.3.6.4.I.T.4XnXSXDXDXHXHXDXZXxXT.8.5.Z : h s y X 9 y y 7 < < < < 2 9 9 0 k D.) ) ` _ x.",
") H.P.K.K.q.H.K.7.7.( 0 z z 9 k f h T <.<.,.( 7.2.3.7.I.W.~.4X5X5X5X XU.9. .T ; y 7 4 y p P h s y X < < 2 2 9 0 0 z c ` ).` _ ` ",
"( P.L.P.K.K.K.Y.Y.R.W 0 x z k k f G  . . .L  .,.1.8.L.e.L.7.7.7.L.t.t.5.C | d X 4 4 7 h E U d s 7 o , , 2 2 9 3 r r c Q ^ _ D._ ",
"e _ ) P.P.K.K.K.K.~.` z x z k z u I E E E F E Y 0.e.e.6.e.e.e.3.5.5.5.| K i o < 4 y s P | d F y 7 > 8 y 7 < 0 9 r k k Q _ _ _ _ ",
"q ^ ) ) ).P.P.).4.) J z z z z z u I L P d P F P >.5.5.6.3.1.1.W $.<.| K y $ 1 1 9 s s L j d d E <.T G H p k u 7 q r k Q ` ` _ _ ",
"k Q ) ) ).) ) ) ).) ^ r k r r u u I P a s L F P | >.<.0.1.E T <. .L s y 7 4 o 7 y p s s s d E <.,.N M G J f 9 9 r r z c ` P.P._ ",
"z ^ ) ) P.).) ).) W g k z 0 9 0 f H g s p P d P E E W E E L E | E U s 7 1 < 1 # > > 7 # > F Y <.R T T G f < 2 3 0 r z r c _ D.D.",
"z x.L.P.(.R.R.R.L._ x c z k 9 u f h h s h g p g P P I I P I | U } h 8 8 7 1 8 7 y 7 X # d L ,.1.,.Y ^ 0 , 2 2 3 z z z k c ^ _ D.",
"~ L.(./.(.(.(.!.R.~ z f k z l 0 k f f f g a 8 d g P H F P E E | H y y 7 4 7 7 7 y 7 X s L L ,.R R J 1 , 2 2 2 2 0 Q z c c x._ x.",
"e./.(.(.(.W.!.~.e.f z u k z u z z z u f h h 8 h d H a a I E E F d h y 1 4 7 1 7 7 4 y F L L  .R a 1 , , 2 2 9 3 r Q c c c _ x.P.",
"L.L.L.(.L.L.E.R.! z c c c z c k k f f y f a 0 h d H s d I I P d g y 4 4 6 7 1 7 4 7 h K Z F L a 1 , q t , 2 3 5 r Q c c c D.q.x.",
"Q ~ s.0.0.0.0.Q z z z c ! H z k r z u 0 h h 0 y h h h P H L H g g u 4 6 1 4 1 7 4 4 i d ; e w q   t 6 t t q 5 5 l l c c k c D.c ",
"Q ~ ~ $.$.E v z z u k Q H Q Q f u k u 0 0 y 0 u u p h g P P d g f q 9 7 1 X 4 < < 4 p p w q , ,   t q t t 2 5 5 5 l l l l k c c ",
"s.~ ~ $.~ ! h z z z c H I Q H h z z 8 9 7 9 0 u f y g F P d P p 7 7 7 4 7 1 < < < 4 y > X < 1 1 t 6 + t 1 6 2 5 l l l l l c D.c ",
"~ ~ $.$.Q z x v c c Q H ! ~ I x w w q 1 9 7 u u 0 u h g P F h 7 9 7 7 7 1 1 < < 1 X y 7 , < , 1 6 @ t t , 2 < 5 l k l l c l c D."
};
