/* XPM */
static char *the_starry_night_resized[] = {
/* columns rows colors chars-per-pixel */
"64 64 256 2 ",
"   c #041B0C",
".  c #0B1A0C",
"X  c #08160A",
"o  c #121D0C",
"O  c #171B08",
"+  c #071D14",
"@  c #141C15",
"#  c #090D07",
"$  c #231D09",
"%  c #201E11",
"&  c #0D220E",
"*  c #18230D",
"=  c #0B2414",
"-  c #092917",
";  c #142412",
":  c #1B2412",
">  c #182B17",
",  c #0C331B",
"<  c #19331A",
"1  c #25240C",
"2  c #222B14",
"3  c #272916",
"4  c #342C14",
"5  c #28341B",
"6  c #35351B",
"7  c #33250C",
"8  c #151B32",
"9  c #192926",
"0  c #183A25",
"q  c #182739",
"w  c #183439",
"e  c #09302F",
"r  c #263626",
"t  c #262B38",
"y  c #283639",
"u  c #353A39",
"i  c #2D2F28",
"p  c #231C20",
"a  c #433415",
"s  c #463935",
"d  c #633B35",
"f  c #164229",
"g  c #354639",
"h  c #2E452D",
"j  c #3D411C",
"k  c #4E531B",
"l  c #4B4D2D",
"z  c #6D5C25",
"x  c #0E1B50",
"c  c #172947",
"v  c #193649",
"b  c #162B58",
"n  c #193857",
"m  c #0C2F4F",
"M  c #212C46",
"N  c #273747",
"B  c #383B47",
"V  c #273A57",
"C  c #273354",
"Z  c #0A2B68",
"A  c #132D67",
"S  c #1A3867",
"D  c #0B3977",
"F  c #173977",
"G  c #0C306F",
"H  c #263B68",
"J  c #273C71",
"K  c #453C43",
"L  c #1A4458",
"P  c #14464D",
"I  c #294648",
"U  c #394548",
"Y  c #274659",
"T  c #344757",
"R  c #3A565A",
"E  c #33544B",
"W  c #1A4769",
"Q  c #174678",
"!  c #1A5678",
"~  c #104C71",
"^  c #264968",
"/  c #354965",
"(  c #265668",
")  c #345767",
"_  c #264778",
"`  c #275678",
"'  c #375978",
"]  c #334771",
"[  c #39647B",
"{  c #2D6674",
"}  c #166377",
"|  c #474848",
" . c #464B54",
".. c #475859",
"X. c #535A57",
"o. c #515349",
"O. c #697152",
"+. c #465865",
"@. c #495C70",
"#. c #496269",
"$. c #536C72",
"%. c #667171",
"&. c #53615C",
"*. c #80702E",
"=. c #749173",
"-. c #6A8F6A",
";. c #DFB72E",
":. c #EDC435",
">. c #B5B156",
",. c #93AD76",
"<. c #ADB66F",
"1. c #8A9A69",
"2. c #CEB850",
"3. c #B3C370",
"4. c #CBCF6F",
"5. c #E8D66C",
"6. c #F0EA6F",
"7. c #D9CA53",
"8. c #0A378A",
"9. c #173A88",
"0. c #0E3994",
"q. c #183997",
"w. c #112A8E",
"e. c #273C8E",
"r. c #163AA6",
"t. c #0B38A4",
"y. c #213EA3",
"u. c #111F92",
"i. c #0A4787",
"p. c #184887",
"a. c #0B578A",
"s. c #175788",
"d. c #0B4897",
"f. c #184797",
"g. c #0A5798",
"h. c #175998",
"j. c #264A88",
"k. c #265887",
"l. c #355A8A",
"z. c #264997",
"x. c #255697",
"c. c #345193",
"v. c #196489",
"b. c #0B6598",
"n. c #186697",
"m. c #1D7599",
"M. c #0C6690",
"N. c #286788",
"B. c #396888",
"V. c #276897",
"C. c #366999",
"Z. c #277599",
"A. c #377898",
"S. c #307589",
"D. c #1848A4",
"F. c #0B58A6",
"G. c #1856A7",
"H. c #114FAC",
"J. c #254CA5",
"K. c #285AA6",
"L. c #2F59AD",
"P. c #0B69A8",
"I. c #1769A8",
"U. c #1974A7",
"Y. c #1569B3",
"T. c #1978B6",
"R. c #0D6EB1",
"E. c #2769A7",
"W. c #3769A5",
"Q. c #2776A8",
"!. c #3878A7",
"~. c #2779B6",
"^. c #357CB6",
"/. c #3067B8",
"(. c #455E94",
"). c #486886",
"_. c #48778A",
"`. c #477898",
"'. c #537492",
"]. c #477BA8",
"[. c #497BB3",
"{. c #4F75A8",
"}. c #566D9B",
"|. c #1673C4",
" X c #2E6EC2",
".X c #2757C3",
"XX c #417FD3",
"oX c #38869A",
"OX c #368695",
"+X c #1981B8",
"@X c #2783A3",
"#X c #3984A8",
"$X c #2B84B7",
"%X c #3987B7",
"&X c #3292AE",
"*X c #468798",
"=X c #578999",
"-X c #48959A",
";X c #548D8E",
":X c #67979A",
">X c #6F9091",
",X c #79A899",
"<X c #6FA897",
"1X c #4886A8",
"2X c #568AA7",
"3X c #4A96A5",
"4X c #5996A7",
"5X c #4789B7",
"6X c #568BB6",
"7X c #4A94B6",
"8X c #5895B7",
"9X c #638AA9",
"0X c #6699A7",
"qX c #769AA4",
"wX c #6897B6",
"eX c #7096B1",
"rX c #5AA6AF",
"tX c #68A5A8",
"yX c #79A7A6",
"uX c #67A4B8",
"iX c #76A6BA",
"pX c #76B5A7",
"aX c #3489C6",
"sX c #1D81C0",
"dX c #5899C6",
"fX c #4B94C5",
"gX c #649CC5",
"hX c #5CA2C9",
"jX c #69A4C6",
"kX c #74A9CC",
"lX c #8E9B85",
"zX c #89AA97",
"xX c #87B596",
"cX c #98B797",
"vX c #8FAD8B",
"bX c #AAB78F",
"nX c #86AAA6",
"mX c #86B7A7",
"MX c #83ACB5",
"NX c #8BB6B6",
"BX c #96B5AA",
"VX c #ABBCAF",
"CX c #829AAD",
"ZX c #9BC599",
"AX c #B3C88F",
"SX c #B2CBAD",
"DX c #93C4B2",
"FX c #C9CB8C",
"GX c #D8DAB9",
"HX c #CDD3AC",
"JX c #E3E2BB",
"KX c #E4D89E",
"LX c #8FB5CB",
"PX c #B1CBCC",
"IX c #CFDACC",
"UX c #E2E5C9",
/* pixels */
"C ^ D Z (.=XMX3X;X'.H x Z A F !.[.l.S Q 8.D.x.].yXBXwXE./.c.L.G.E.{.`.'.BX{.J..XJ.j.j.q.9._ J e.9.E._ S p.A G.x.h.d.S j.V.Q.`.V.",
"A H G p.].0X<.>.cXiX].C b Z 9.6X<.=XQ A F G./.>XxXnXnXiX/.z.p.C.l.'.{.9X[./.j.c.z.f.r.L.c.(.c.z.W.E.j.d.x.W E.s.K.s.f.n.h.` s.Q ",
"G A S x.5XvX:.:.>.tX5X9.w.u.k.wX>.,XV.F S q.L.nX,.2.yXwX}.>X%.].E.k.(.c. X/.G.J.y.r.Y.W.[.'.'.C.x.W.K.G.c.x.x.~ Q x.k.k.Q.@Xh.x.",
"G F Z j.fX,.7.:.3.xXW.q.w.G F V.1XC.` D.9.J }.NXnXlX,X5X>XbX<.vXL.G.h.x.c.w.q.J.y.y.fX0XyXnXqX2Xz.G.p.p.w.W.h.A i.Y.k.D V.I.|.rX",
"x A A _ 5XwXcXZXvXiX[.u.t.H C 0.F F f.L.e.u.{.gXqXqXeXXX2X<.2.bX[.f..X/.q.q.q.e.q.w.6XAX2.<.,.zX{.z.G.d.9.j.Q A F.G.x.G ' :XrXDX",
"F J z.e.(.6XhXfX1X{.q.e.D.t q r.r.z.z.z.c.y.L.L.J.(.c.y.c.CX>X'.z.r. XJ.J.L.J.z.y.{.kX<.7.;.>.,.}.G.G.D p.A Z 9.Y.G.H.s.=XZXZXvX",
"8.S 9.q.W.c.J.W.{.z.r.y.e.1 t w.w.9.r.r.z.J.J. X.Xu.q.y.r.D.r.q.q.r.y.L.L.y.w.e.z.{.jXcXAX3.<.,X=.x.p.F 9.8.9.G.H.G.+X#XrXZXZX3.",
"p.A A e.9.f.f.0.q.9.z.z.F $ t q.9.0.w.r.e.y.z.z.J.D.K.J.y.r.r.D.f.0.J.(.j.u.u.e.z.W.2XyXyX>X>X>X=XQ b F F G 9.d.F.|.$XrXpX3.4.7.",
"l.F A F J.r.H.D.z.z.f.z.9.1 N '.=.%.}.9.q.u.D.f.x.G.d.p._ p.F j.l.p.x.l.c.e.c.J.y.y.(.9XeX0X].Q.h.9.A G p.D G 0.t.|.~.-XvX3.4.6.",
"5X9.j.f.D.H.r.r.q.f.9.q.] * X.lX>.<.1.).w.f.D.H.D.j.l.C.W.|.~.C.@.B.'.'.).).c.(.e.e.z.W.A.].G.F.p._ d.g.d.D.w.d.H.H.U.-XxX4.6.6.",
"@Xh.0.f.f.J.f.f.f.f.0.d.^ @ O.3.:.2.>.'.D.D.D.z.p.l.C.^.sX+X[.].wXgXeX{.9X}.(.'.}.z.z.z.x.G.h.s.s.i.E.G.f./.D.p.H.R.I.-XZX6.6.7.",
"Z.h.f.H.f.e.q.h.G.z.f.D.] 9 lX2.;.;.2.=XD.D.D.p.J.E.Y.Q.Q.jXVXHXPXLXLXPXLX2X6XdXgXgX6XW.d.j.! p.h.f.!.2X2X8XE.H.H.G.Q.-XZX6.6.:.",
"{ ' K.f.G.f.z.z.h.z.q.D.J 9 ;X2.2.2.>.C.t.f.V.I.Q.~.Q.!.MXVXbXlX}.CXCXCXLX6X].1X8XgXeXkX^.p.D W ` Q.,X=.0X>X2XI.F.H.Q.tXSX6.6.5.",
"#X%.6XJ.e.h.j.j.x.0.8.f.W 9 V.'.=.qX].D.d.E.!.E.^.1X1X2XzXbXqX}.9X>XlX=.9X9X].1XW.E.5XLXdXC.F Z p.;X,.bXVXvX;X~.H.F.I.<XZX3.6.6.",
"5X`.>X^.F S j.9.G.f.9.d.S @ d.H.d.D.d.q.E.~.^.1X3X1X`._.cXcXU.U.!.1X6X].{.iXLX{.T.~.5XwX[.dXx.Z i.;XbXFXKXAX>X+XF.0.P.U.-X3.3.6.",
"6XfX>X}./.] _ A p.f.0.8.F 9 p.Y.W.W.6XdX^.5X0X0X5X=X>XMXNXuXV.I.E.B.C.h.[.].{.LX~.h.g.!.MX[.].8.8.;XvXbXFXcX,X#XF.F.a.@XOX-XAX4.",
"^.dX6X%.9XwX)._ W i.d.0.` 9 #.aX[.fXhXfX[.nXBXgX7X1XiXuXZ.! s.I.I.Q.~.G.!.{.C.wXdXW.x.i.{.2XW.g.i.v.=.>XyXNX3XoXR.Y.d.E.OXN.-X4.",
"%X[.8XiX'.%.gXjX2XE./.].^.I 6 tXwXdX%X8XLXiX6X~.%XkX7X~ n F x.V.C.j.Q.aXE.V.x.{.uX9X6X!.8.`.[.d.i.g.1X3X4X7X$XQ.E.|.t.i.Z.n.;XZX",
"&X^.V.kXMX9XwX2X>X0X0X7XaXR & $.kX8X2X0XMX5X~.5XrX!.Z m Q ~.$X1XnX{.{.Q.sX^.E.V.A.1XC.6Xk.i.f.d.d.F.I.T. XE.~.$X~.U.d.i.S.b.=XcX",
"&X&XV.g.9XkXwX'.!.!.n.5XgX|   g [.].wX4X8XT.>XxX<Xm.W W Q.7X1X*X2X3X5XE.|.sX1XE.!.%X!.eXA.p.Q 8.d.g.g.I.G.Y.~.T.U.I.Y.h.h.#XZ.S.",
"fX@XrXA.d.~.aX2X5X5X`.hX%.2   0 8X8X*X5X7X#X<X5.HX;XS n.1X'.7X1X9XMX7X^.~.%XdX^.!.hXdXwXjX].p.m Y.h.s.I.G.G.E.Q.U.! g.E.I.F.U.P.",
"kXuX@X3X#XF p.s.`.MX%.aXY X = 9 6X5X5XLX!.`.zX4.<.*Xs.U.W.].2X{.].MXiX!.C.!. X!.].8X6XgXgX!.Z m Y.s.s.G.~.I.V.Q.V.s.a.a.P.g.s.P.",
"aXuXdXfX$X7X5X2X6XgX) %XE * , r jXjXjXS.~ s.0XzX,XQ.b.I.B.^.1X`.E.C.wX5Xl.~.Y.6XgXdX4X6XjXC.k.h.I.I.I.C.Y.I.n.U.v.v.n.P.P.P.Y.T.",
"8XyXjXjX7X7XaX&XdXuXE 1XE 1 , h fXI.V.^ W g.Q.1XC.a.n.[.9X~.U.W.Q.x.A.].V.Y.dX!.5XdXdX5XA.f.W.I.h.$.%.$.@.v.n.n.M.N.Z.M.P.P.I.U.",
"5XeXLXjXiX8XwXhXhXhXI #.g * & h Q.s.n.Q m s.g.~ s.n.!.].LXXXU.`.V.d.N.!.Q.G.].1XQ.7X6X!.p.W.5XA.eXnXqX>X>Xl.Z.E.U.b.m.@XU.n.U.R.",
"v.Q.aXuXjX8XdXdXfXfXI r f & - f s.Z.V.v n W s.s.g.b.I.8XkXdX1X9X2Xn.Q Q.I.1X!.5X5X6X2X].[.%XA.:XPXiXeXiXiXkX`.Z.g.a.g.b.T.+X+XQ.",
"a.a.U.U.3X4X5X7X7X$XI & , * - - ~ k.s.' ! ~ L I.g.P.R.%XdXdX!.9X`.0Xs.h.g.p.[.[.].V.x.a.Z.;X>X2XwX2X!.`.A.6XiX!.E.g.a.b.R.+XR.b.",
"g.1X8XA.v.` s.U.G.V.e . * * - - w ` W n.g.~ Q g.g.R.T.~.9XdX!.A.4XeX4X!.!.Q ^ x.h.s.C.=X;X0X2XV.n.h.n.V.Q x.6XZ.Z.M.a.a.U.R.U.4X",
"n.eXHXiXv.Q M.N.=.=.h * * * & - 9 ~ L M.I.I.Y.P.!.%XU.Q.fX].gX2X].4X0X#X~.U.A._.C.V.`.`.#XE.!.U.U.U.Q.B.p.N.1X~.g.~ a.g.M.Z.BXAX",
"V.NXSXyXn.F.v.,.3.3.-.2 * * & & 1 } s.Q.~.Q.Q.8XMXMXNXwX%X$X^.5X2X5X$XQ.%XQ.7XiX2X1X#XQ.h.G.I.U.0XwXT.V.`.1X`.#Xg.~ a.g.M.mXHXbX",
"a.=XiXoXb.R.S.3.FX7.-.< * & * & $ ) ` m.U.2XBXVXVXSXPXLXLX7XT.Y.E.7X8X%X^.%X3XiX2X`.V.E.Q.h.U.6XnX2XR.V.A.iXB.Q.F.D a.Z.xXSX,XSX",
"F.n.n.h.P.n.S.=.FXFX=.j & * * & 7 N M.U.v.,XSXGXUXUXIXIXIXjXR.I.p.h.3X8XV.Z.4XQ.h.K.~.%X@Xa.T.5X6XE.~.R.$X#X$.@Xg.G s.zXbXSX,X,X",
"R.h.Y.a.b.R.v.=.3.3.O.4 & @ : + * ( T.Q.`.zXVXHXGXKXGXGXUXPXE.F.n.c.6X6XV.p.h.d.E.W.s.} b.a.n.A.5X6XQ.$X^.B.$.Z.D Z <XAXbXHXxX<X",
"R.d.a.a.M.U.P.Z.[ OXg $ = . : + O ~ R.U.2XVXHXKXKX5.KXJXHXVX0Xs.s.^ l.wX8XU.E.P.U.@X~ a.m.m.s.OX5XwXkX0X2X>X_.V.Q ;XcXZXFXHXZXBX",
"i.~ n.v.~ a.h.g.b.g.3 $ =   @ + o L U.m.`.yXIXGXKX7.5.JXHXqX0Xm.U.Q.k.N.V.Y.~.Y.m.b.a.! n.M.m.oX3XE.V.].A.A.A.v.:XAXSX,XcXSXxX_.",
"s.~ b.V.{ V.a.d.n.! o 1 +       * Y M.~ ' qXHXIXHXJXHXIXJXMX3XQ.%XwXZ.E.T.T.&XU.v.M.U.*Xv.b.OX<XyXNXnX=X:XtX-XDXmXpXZXxXxX,X-.;X",
"a.~ V.OXOX( ~ ! F.! : 1 2   . - & I b.v.v.:XVXHXIXUXIXIXIXVXwXE.V.1XQ.V.U.Q.#Xm.g.A.tXpXtX:X<XxXSXIXUXHXSXSXxXSXmXmXZXZX*X-.*X4X",
"..$.,.vXvX*XQ 8.n.! o o 7 $ X - , h S.( v.$.BXIXPXIXIXPXNX9XC.A.Q.2X0X,XmXcX:Xb.3XZXbXAXSXDX-XtXmXmXpX3XrXrXtX<X-X-XOXoXm.:X-X-.",
"3.zXoX2X<.pX&Xn.I.^ .   1 1 # = , r P ( { W qXPXLXIXLXkX1X,.bXzXzXcXyX<XbX,.vXtX,XSXSXzXBXDXnXNXpXuXuXuXtXtX-XOX-X@X3XOX*X$.U c ",
"lX:XZ.3XxX3.pXrXI.! X + & $ . & > r f ! Y ^ !.*X'.9X=X>XvX4.<.BXzX,XbXzX<XlXvXcXcXcX;Xk.A.4X4XrX4XyXtXtXDX-X*XOXOX[ @.S 8 8 8 x ",
"bX9XA.oXyXcXxX,XrX[ *     1     & 5 f L w I A.`.:X,XbXAXbXBXcXvXzXqX*X*X=XcXzXyX0X>XB._.!.Z.[ ] / / V / '.k.a.p.( q 8 x 8 8 8 q ",
"oXm.A.*X-X4XcX,X<X$.> &   & & . : 6 & P 9 6 ,X0XqXpXyXyXnX=X*X-XA.V.S.4XcX4Xm.Q.A._.>XB._ n S ] @.H C b m n ` ! v 9 c c V b C F ",
"'.Z.=X*XZ.OXtXrXZ.S.> X     * 3 2 5 o m = 1 o.:X4XpXnXtXoXM.n.@Xm._.'.C.oXU.@X@X*X' F F _ W 9.j.j.J H C c 8 b V V V S p.f.w.q.d.",
"Z.n.g.V.=X*Xv.@X#X*Xr X &   o 3 : 2 & f @ : $ l :X:X=X@Xm.m.@Xm.Z.1X1XA.N.#XoX`.l.^ F p.p.j.` _ J J H M c F i.Q p.p.f.d.a.i.d.s.",
"n.a.~ v.oX;X*XN.V.Z.E X & . o 4 5 2 O I q 4 5 O Y ~ ~ Z.@XA.` H C b ^ 2X3XZ.N.J J l.` j.` Q _ ) F F V C j.f.p.g.g.s.s.d.0.8.i.Q ",
"S.N.x.s.*Xs.a.OX;X&X{ . ; . O 4 2 5 O r P $ 3 2 6 R s.M.v.F D F A x x F ` J F _ c.k.j.f.x.Q W ) J / _ J.x.k.k.k.p.l.( n p._ n S ",
"b W S.Z.n.Z.1Xa.N.~.( O > X ; 4 . > * . 9 4 . - 5 4 Y F 9.D 8.9.Q F H J J j.j.z.x.k.k.x.x.` ^ V H c.L.z.D Y [ ).( ' { ) ' { R Y ",
"c c v q.d.k.p.Q D G y O <   = O + : ; o . 2 ; = = 3 7 S S c C H A _ B.` p.^ Y p.p.' Y C S _ F e.c.z.9.' P m f P w q v e P L ( P ",
"v v c b Z G S b t y 9 = - > - * @ ; 3 . X ; 2 < * 0 < 3 w I N N M m [ OX{ { ( W s.[ / B.A.m.V.#._.' ' { { W P E E -.&.E E ) ) o.",
"v v v c c c w w v y > > > ; = o 6 : 5 @ 3 : & ; . = > 9 S P m y T T I ^ { ( ! ` } B.).S.A.N.} } } ` L P L W { -X;X[ _.:X=._ j.@.",
"m m c v v n y P v : = j >   : & @ 4 p > 3 ; @ * = ; > r ^ S w g N.} ^ ^ E y ) ` ( @.@._.` ` N.~ ^ V ^ I i q q v v L ! S.^ V ^ W ",
"q q m m v v n S 0 > : 5 = ; 2 < . 4 4 6 > @ : & ; ; > 5 S y N k.l._.' B.^ V ) ^ Y y i ^ m L ` V.! ' B.N.( ^ c q q q v v M ' { ) ",
"q 9 c x v I V S & > 2 : ; < j 2 > % 4 6 4 ; 5 : ; > : s r U / S _ V V U #.>Xg @.Y #.N v S c n N.` ! ( N.V T O./ V / v ~ Y ~ ` [ ",
"g v U l N B v v * : 2 * = > * < 5 % 3 ; 1 1 4 2 ; : > 6 $ s | s d s t M ..$.| U [ =Xy t @.@.V W N N 8 c n N o.+./ N c x m q n { ",
"g I I E V n W N 1 2 = & & & ; r 3 > 3 = ; 6 < 5 5 & 6 4 . u V i s B B l U o.u u E [ 8 B e.).N q q w l u ~ n / '.).).M 8 8 q q L ",
"y u t N b b n V * 1 & ; . & < 6 p > O + 3 6 & 5 6 6 4 > = 9 B c t N t z X.R i U $.[ c / M M @ t t y O.| ) L y  .&.+.o.l o.| B q ",
"N B T N N R R ..5 7 : = 3 < < 3 5 > 3 i 6 j < < 6 3 < w - e e y c c q 9 v P v w Y / N B u  .t t q t c M 8 @ 9 ) %.#...l ).%.B B ",
"V T T C u g T &.6 4 5 - > : O @ r , i 5 r h , > 6 : 0 f - + - r I w U P L g R &...B o.X.X...M 8 q t B i B I T L { Y q +.=X$.+.$.",
"M N V v g k r g 5 7 4 2 r - - @ = 9 3 - 2 f < 2 6 a > f - - , e 1 u u y w g %.=.%.| K | | | M q N I M p n ^ H ( ( W ( P =.-.T / ",
"t t t i l k i h h 5 6 : r 5 - 3 ; 5 ; - * f < > 2 3 4 r : e , , - 4 s g 6 g ^ S T t K z *.l K  .K B s s p m Y V 9 ~ { S b B C q ",
"i h y j r k k h l h 0 < , ; 2 f > 2 = , 2 < < + 1 o - 2 1 2 0 - - 3 | R .... .T T U o.s l d X.o. .X.| K o.B V  .M N V n c c '.).",
"r q q k 5 k z k I g h < < , 1 f - ; = , , 2 1 @ ; 7 > , & 1 k < , 5 &.#.) ..X... .| K t i o.X.| X.X.s | %.%.@.+.N t n W N c @.@.",
"y g l k l h w h h y l 0 , > ; , f : > - f , 3 @ = ; 1 - , > a 5 f 4  .#.&.&.X.$.$.$.B y t | K K K  .&.%.%.%.%. .y  .M n b B B C ",
"9 r l j k g y q h h h l < < - - h 5 r > f , O ; , r 6 r = * 7 < 5 s ..R R #.#...+.@.K y | X.s O.t  .X.X. .X.+.T u U t M C M B X."
};
