/* XPM */
static char *Wheat_Field_resized[] = {
/* columns rows colors chars-per-pixel */
"64 64 256 2 ",
"   c #282A32",
".  c #171D3A",
"X  c #503935",
"o  c #703830",
"O  c #564530",
"+  c #68482C",
"@  c #76492A",
"#  c #79552A",
"$  c #674735",
"%  c #795735",
"&  c #6F4F32",
"*  c #786738",
"=  c #6E6D3A",
"-  c #5A6538",
";  c #1E284A",
":  c #2E2F4C",
">  c #2A2E66",
",  c #4D3946",
"<  c #703744",
"1  c #564A52",
"2  c #775745",
"3  c #6C524E",
"4  c #7A6657",
"5  c #726E48",
"6  c #525973",
"7  c #706B6E",
"8  c #665966",
"9  c #3D416D",
"0  c #883629",
"q  c #A23925",
"w  c #89582B",
"e  c #99582C",
"r  c #885837",
"t  c #945C34",
"y  c #975C37",
"u  c #8F4A2D",
"i  c #A74A28",
"p  c #A95829",
"a  c #B95929",
"s  c #A75A34",
"d  c #B55B33",
"f  c #B04929",
"g  c #99662A",
"h  c #886637",
"j  c #9B6433",
"k  c #93643C",
"l  c #9B643B",
"z  c #9C6B3C",
"x  c #976836",
"c  c #8A773C",
"v  c #95773B",
"b  c #85602B",
"n  c #A8682B",
"m  c #B36B2C",
"M  c #B8682B",
"N  c #AB732D",
"B  c #B7762D",
"V  c #A36634",
"C  c #A46B34",
"Z  c #AB6B34",
"A  c #A46C3B",
"S  c #AC6938",
"D  c #B36B32",
"F  c #B76937",
"G  c #AB733C",
"H  c #AC7B3C",
"J  c #A87538",
"K  c #B47433",
"L  c #BB7433",
"P  c #BB7B32",
"I  c #B47B3D",
"U  c #BC7C3C",
"Y  c #B6763A",
"T  c #B0601F",
"R  c #C4582A",
"E  c #C45C33",
"W  c #C6692A",
"Q  c #C8772C",
"!  c #C66A35",
"~  c #C57937",
"^  c #D67737",
"/  c #953445",
"(  c #845B43",
")  c #896748",
"_  c #986944",
"`  c #987549",
"'  c #987755",
"]  c #8A734D",
"[  c #A66C43",
"{  c #B56B42",
"}  c #A47344",
"|  c #AB7443",
" . c #AC7B44",
".. c #A97849",
"X. c #B67945",
"o. c #A87A56",
"O. c #B87A54",
"+. c #8A7571",
"@. c #AC7E61",
"#. c #C37946",
"$. c #C07A56",
"%. c #75815B",
"&. c #76843D",
"*. c #90813D",
"=. c #AB863C",
"-. c #BD8434",
";. c #BC843B",
":. c #BC8B3C",
">. c #B58739",
",. c #BB923C",
"<. c #B6852F",
"1. c #C4843C",
"2. c #C38B3C",
"3. c #CB8B3B",
"4. c #C78637",
"5. c #D18939",
"6. c #CB933D",
"7. c #C7963C",
"8. c #D3963C",
"9. c #CD822D",
"0. c #D9A93E",
"q. c #998C53",
"w. c #918B51",
"e. c #A78649",
"r. c #B38442",
"t. c #BC8344",
"y. c #BD8B43",
"u. c #B5834A",
"i. c #BB884A",
"p. c #BC934C",
"a. c #BA9546",
"s. c #A98756",
"d. c #B88857",
"f. c #B89857",
"g. c #AA9659",
"h. c #B9A15A",
"j. c #948E6D",
"k. c #B2926B",
"l. c #B1A66D",
"z. c #9AA165",
"x. c #C38343",
"c. c #C38B43",
"v. c #C48C4B",
"b. c #C98847",
"n. c #C49344",
"m. c #CB9343",
"M. c #CB9B43",
"N. c #C4934B",
"B. c #CC9B4B",
"V. c #C69949",
"C. c #D59B47",
"Z. c #C58B56",
"A. c #C99858",
"S. c #D2924F",
"D. c #CDA24C",
"F. c #C9A348",
"G. c #D6A749",
"H. c #CCA454",
"J. c #CDAB5B",
"K. c #C8A657",
"L. c #D5AA57",
"P. c #D6B457",
"I. c #DCB34A",
"U. c #E2B154",
"Y. c #C69965",
"T. c #C4956F",
"R. c #C8A865",
"E. c #D4B667",
"W. c #CCB877",
"Q. c #CDB16F",
"!. c #E0BE61",
"~. c #D8C579",
"^. c #E4D069",
"/. c #4B598D",
"(. c #5D6B93",
"). c #727794",
"_. c #6B79AF",
"`. c #5D6DB4",
"'. c #7789AA",
"]. c #768DB8",
"[. c #7AAAA6",
"{. c #778C9D",
"}. c #7994C2",
"|. c #7FA3C8",
" X c #AA9888",
".X c #B2AA90",
"XX c #8A96AC",
"oX c #8A99B1",
"OX c #8AAAA7",
"+X c #97AAA8",
"@X c #89B3AC",
"#X c #97B5AA",
"$X c #8AA3B8",
"%X c #99ABB7",
"&X c #8DB6B3",
"*X c #9BBCBC",
"=X c #97B7B7",
"-X c #A2AEB6",
";X c #A3BDBB",
":X c #A5B8B6",
">X c #A9B3AE",
",X c #97969E",
"<X c #C5BC98",
"1X c #C7B689",
"2X c #9AC2BA",
"3X c #9FC1AF",
"4X c #ABC3BB",
"5X c #A7C7B9",
"6X c #B4C9BA",
"7X c #B9D2BB",
"8X c #A8C9B3",
"9X c #D0C690",
"0X c #C6D5BD",
"qX c #CFCBAD",
"wX c #869EC4",
"eX c #8AA6C6",
"rX c #94ACC5",
"tX c #9AB7C8",
"yX c #91B5D0",
"uX c #A6BAC7",
"iX c #A5BDD3",
"pX c #ADB8C9",
"aX c #9DC2C3",
"sX c #9CC5D2",
"dX c #ACC4CC",
"fX c #ACCCCB",
"gX c #A8C6C5",
"hX c #B5C9C8",
"jX c #ADD4CA",
"kX c #BAD2CC",
"lX c #B9D5C8",
"zX c #AAC5D6",
"xX c #B3CBD3",
"cX c #B9CBD5",
"vX c #B8D5D8",
"bX c #ADD6D7",
"nX c #BBD6E4",
"mX c #ADCBE2",
"MX c #B7E2E1",
"NX c #C6D9C8",
"BX c #D2DCC8",
"VX c #C7D8D7",
"CX c #C8D1D4",
"ZX c #D8E4CA",
"AX c #CAE2D5",
"SX c #D4E4D3",
"DX c #D8E6D8",
"FX c #CEE2CF",
"GX c #E2ECD8",
"HX c #E8F1D8",
"JX c #C6DAE7",
"KX c #C9E4E7",
"LX c #DAE6E6",
"PX c #CDEBF2",
"IX c #E2ECE5",
"UX c #E8F4E7",
/* pixels */
"XXXXoXoXoX%XrX%X%X-XpXhXCXCXCXCXCXCXpX:X>X>X>X>X-X:X;XhX:X6X7X0XNX6X8X6X6X:X-X+X,X,X+X+X,X+X#X>X2X5X:XgXfXgXgXfXjXfXbXlXgXdXuXuX",
"%XoX%X%X%X%X%X*X%XuXpX;X-X-X-X,X+X-X+X+X+X+X+X-X#X:XhXlXlX4XpX6X:XNX0X0XNX0X0X>X8X>X>X#X+X+X+X#X=X=X*XgXgXfXgXgXgXjXvXbXbXjXgXgX",
"uX*X=X=X%XrXuX:X-X-X%X%X%X%X-X-X;X;X#XOX+XOXOX#X>X5X6X4X8X2X2X3X:X8X8X6X7X7X7X4X8X8X#X#X#X#X+X+X%X=X*X5XgX5X2XaXfXkXbXjXjXNXvXkX",
"&X*X=X@X@X*X;X*X=X=X=X=XtX2X&XaX&X2X2X&X=X&XOX@X&X@X2X=X@X2X@X[.#X#X#X#X8X8X8X#X#X+X#X#X#X>X+X#X#X=X;X;X5XlXlXjXfX8XlX7X7XlXkXFX",
"@X&X&X2X2XaXaXaX2XaXaX*X2X=X&X&X=XgXaXtX2XaXaXtX2X&X&X[.[.[.[.[.[.8X8XjX7X5X2X3XOX@X#XOXXXOX=X:X=X=X;X5X4XlXlXNXlXNXSXDXSX0XNXFX",
"@X#X*X2X2X2XgXfXgXgX4X;X5X;X=X*X=X4XfXaXtX*X*X2X*X&X&X@X[.aX2X2X3X2XjX8X2XgXjX2X2X3X=X=X%X$X=X%X*X*X;X4X5XlXNXNXlXjXFXAXAXFXFXAX",
"=X&X%X>X:X8X*X*XaX*X=X;XgXgXdXgX2X=X*X5X2X*X8X8X4X7X6X8X5X5XlX7X8X8X8X2X2X3X3X2X3X:X>X0XlXlX7X6X;X;X;X:X5XjXkXlXAXAXAXAXAXSXAXDX",
"=X=X-X+X-X%X%XrXuXgXgXhXlXlXlXNX6X:X:X#X>X6XBXZXZXHXGXFXZXZX0X7X8X3X3X2X8XlXFXlX0X0X0XZX0XZXZXZXBXBXNXhX6X6XlXlXFXDXDXDXDXZXSXSX",
"tX%X-X,X-X-XtX-X#X%XpX6X6XhXhX7X7XlX0X7X7X7X7X7X0X6X6X6X6X8X:X>X3X8X5XjXBXGXHXHXZXBXBXBXVXCXCXcXVXVXVXVXCXFXDXJXlXFXDXSXDXSXDXFX",
"%X-XpXuXuXiXdXpX:XpX:XNXBXNXNX7XFXNX7XNX7X7X7X8X8X:X;X;X:X6XCXVXjXjXlXSXDXLXUXLXFXhXcXCXpXxXdXzXbXfXlXcXVXJXLXJXAXjXvXCXkXhXkXNX",
"-X0X0X0XNXBXBXBXBXZXBXZXHXGXBXDXHXFXKXDXAXAXAXAXBXFXBXBXDXGXGXIXGXUXUXLXLXLXIXLXLXcXCXpXpXrXwXyXtXtXtXiXrXuXpXCXAXAXVXvXcXzXzXzX",
"-X0X0XBXZXCXBXFXZXSXSXFXSXDXDXDXGX0XZXZXZXSXDXDXSXGXUXUXHXHXZXGXIXUXUXDXDXIXIXJXvXcXzXcXzXzXzXsXiXtXrXwXwXtXmXCXbXvXvXcXcXnXnXcX",
"uX-XpXxXcXNXVXAXAXDXVXkXkXkXNXlXNX>X0X7X7X0XNXNXNXAXDXDXNXBXBXGXDXDXGXCXIXIXIXCXcXcXxXdXiXiXtXtXrXrXrXrXmXJXmXmXnXcXcXiXpXiXmXxX",
"uXpXpXiXhXkXCXCXkXvXvXVXVXbX+X.X,X@. X:X5XjXjXbXvXAXVXVXNXCXCXCXKXDXLXLXLXLXLXLXJXVXdXtX%X$X].}.].eXiXyXwXyXiXJXJXJXPXJXJXnXzXdX",
"uXpXpXhXpXuXgXhXxXxXfXgX;X2X.X X XT.$.T.T..XnXKXKXvXVXVXVXcXcXJXLXLXLXLXLXJXCXJXVXdXrXeXrXoX].].}.wXyX|.wXwXeXmXnXnXJXJXPXPXiXpX",
"dXdXuXdXxXdXxXvXvXxXgXgXgX2X+X X1X X$.S.S.O..XAXKXVXvXkXdXpXCXCXCXJXCXCXJXCXiXiXiXiXzXiXtXeX].|.}.|.yXrXeXyXiXiXmXnXnXcXJXPXoX].",
"uXdXiXpXcXxXxXvXcXcXcXCXpXpX>X.X X1X<XZXqXqXT.>XxXbXfXhXfXfXcXpXdXdXdXxXkXbXjXsXgX%X$XaXtXsXsXsXyXyXyXyXzXzXsXsXmXPXPXnXvXbX].oX",
"rXrXpXpXiXiXrXeXuXpXpXrXpXrX,X1X.X1XqXHXHXZXqXpX-XgXgXgXtXuXpXrXtXgXgXfXfXaXbXjXjX*XgXjXjXbXMXbXmXbXsXmXzXiXnXKXPXnXbXKXMXMX|./.",
"_._._._._.XX'.'.`.`._._._._.,X1X1X<X X' +.j.7 6 6 6 '.wXXX X,X}.].$XrXsXtXrX|.eXeXtXtXsXsXsXsXbXKXPXPXbXrX$XtXKXPX%X(.$XMXsX'.9 ",
".X,XXX)._._.).oX,X).-X%XXX).).1X<X<X X+.( X   : . ; 9 +.j. X X+._.`.`.`.]._.].].].].'.wX$XeXeX].$X{.XX{.8 (.`.yXeX'.{.(.6 %.5 8 ",
",Xj.7 7 8 1 1 ' Z.m.b.o., X 8 1XqX<X1XqXqX X3 1 ; > : j..X.X.X X).9 /./.6 6 (.(.(./.6 _._.).9 ; , < 0 / / 8 7 +.7 4 ,X3 4 4 7 4 ",
"w.g.l.A.Z.b.S.Y.H.S.X.b.b.b._ 2 .X9X9X.X<X<X<X Xj.7 3 ) +.4 ' 4 1         . . . : . . ; ; ;   X , 3 3 1 , 3 ] 4 4 ' 4 4 q.j.q.g.",
"g.f.f.d.] X.v.Z.B.s.3 | 6. .2 2 & * c * r k ( ( c ) k c % % h @ @ O O O O X O X X X X X $ $ o $ < O 1 3 ) ' o.s.s.e.g.F.P.P.H.F.",
"5 ` ' 4 3 4 v * h ) X 2 & O X $ & + & # w b w w b b # b h & + w w x J a.4 < < o X 3 < 2 $ $ 3 ) 4 ' s.o.o.] ` ..,.F.I.I.I.P.H.f.",
"5 5 5 5 4 4 - 5 5 5 ( 2 ( ` ) _ g.e.e.H r.e.=.e.a.,.h.P.K.F.a.F.G.I.I.^.g.) r 2 3 X , 3 2 ) ` ` o.` ' e.s.d.h.V.D.F.B.F.H.F.a.F.",
"Q.l.W.Q.Q.K.h.Q.R.E.E.R.J.L.L.V.a.G.P.H.P.D.H.P.I.F.0.7.7.7.F.,.P ~ 3.1.7.I.F.P.J.h.g.h.h.f.l.h.l.g.r.=.s.s.e.J H J =.H H J =.e.",
"W.1X9XW.Q.R.J.H.J.K.J.H.H.V.p.s.p.D.D.D.B.m.M.G.7.F.,.,.,.*.,.=.4.8.1.B.I.I.G.H.G.I.I.F.G.0.F.a.,.-.K H P <.-.<.=.r.>.>.I r.t.X.",
".X<Xl.W.W.E.J.A.H.J.A.f.L.K.B.L.K.f.P.D.p.N.C.B.G.F.=.>.=.=.=.>.=.>.,.M.G.G.H.H.D.I.F.M.M.M.a.<.<.2.2.,.:.>.:.1.1.y.v.#.X.u.e.e.",
"l.W.l.1XW.W.Q.E.E.P.A.H.J.K.L.H.L.B.L.F.v.N.L.D.D.q.*.=.=.,.a.=.,.=.,.2.I.Q.h.l.K.G.G.F.7.8.6.3.6.;.4.4.#.1.#.5.t.;.r.e.w.&.z.z.",
"<XQ.E.W.E.E.L.R.E.W.E.R.J.J.K.f.H.H.p.v.b.N.G.G.a.g.s.q.g.=.:.2.n.7.2.G.G.f.K.a.V.m.V.n.-.;.2.3.b.! ^ ~ Y G J v c *.&.w.w.w.j.z.",
"9X~.W.E.W.E.L.P.E.R.J.R.E.E.K.q.e.B.H.N.N.A.i.X.f.a.a.s.q.-.7.6.7.8.b.m.U ~ 2.p.t.v.x.X.~ ~ #.^ ^ F v c c w.w.w.l.z.l.z.l.z.w.z.",
"9X~.~.~.E.H.H.L.U.H.K.L.E.J.H.f.p.G.B.:.>.i.p.p.V.D.3.>.>.,.6.M.6.1.1.U ~ Y L Y Y X.#.~ ~ ! L J * - = w.&.q.g.l.k.W.~.l.l.z.z.l.",
"~.9XW.~.E.V.J.E.E.K.J.!.P.P.L.B.m.G.N.>.r.A.R.V.y.B.2.U :.;.t.y.5.1.1.x.M.b.1.m.5.4.~ 2.y.Z g c *.v e.s.e.w.c w.w.l.z.g.l.g.g.l.",
"E.W.Q.E.P.R.E.E.E.J.D.H.P.L.D.V.y.N.K.K.a.H E.H.n.6.;.:.2.:.y.N.m.G.M.B.G.G.I.I.I.U.G.0.0.3.5.0.0.8.3.2.t.N.>.i.l.h.] h.g.e.q.w.",
"d.R.K.H.E.E.E.E.L.J.J.L.P.P.G.y.,.H B.f.p.p.P.!.V.n.B.G.D.V.G.G.C.C.8.C.m.6.m.H.G.B.L.M.8.8.8.C.G.C.6.8.4.7.c.x.v.i.N.U X.r. .e.",
"@.Z.Z.T.A.S.S.S.p.J.H.V.n.V.y.x.m.a.6.M.y.H i.Z.#.~ 1.1.i.n.;.G.y.-.7.;.J ;.m.y.x.I 4.3.m.2.9.5.4.6.8.6.G.2.2.3.2.B.G.3.M.N.2.1.",
"o.O.Z.Z.$.k.Z.Z.Z.N.Z.N.K 4.x.b.n.C.b.m.2.u.u.x.! ! ! b.L.i.D.D.M.:.r.| u.a.:.y.>.~ P 2.>.4.3.8.m.8.5.3.4.2.:.m.8.X.x.3.b.2.3.c.",
"k.@.O.Z.#.O.T.Z.b.#.T.#.~ X.#.1.~ u.P 1.;.c.N.v.x.v.~ #.C.t.B.D.G.M.#.~ p.p.r.i.=.;.-.:.-.4.1.3.3.b.m.1.4.1.~ 4.m.m.B.A.~ x.X.Y ",
"o.o.%.j.d.O.$.Z.S.A..X#.$.{ F X.F O.:.4.a.c.c.y.K t.N.c.x.M.J.I.B.d.@.O.| |  .a.>.y.<.-.B B P 4.5.5.N.b.G.C.C.b.m.S.C.m.U U x.U ",
"T.k.%.w.[ _ q.i.b.Y.T.$.Z.@.o.o.{ ! 1.~ c.y.V.p.D t.i.Y K :.y.2.s.+.j.o.| Y K c.V.y.a.2.m m B m 5.C.3.1.C.C.U.C.n.4.~ ~ m.n.y.y.",
"T.R.A.L.O.[ o.o.{ $.$.$.Z.O.@...X.^ ^ ! F d 1.U I 1.{ M :.P M.2.J e.| ..s.s.m.m.U y.,.2.P K B a K 1.3.4.1.L 5.4.;.2.-.2.n.7.J.e.",
"d.T.Y.Q.Q.L.U.A.#.#.$.{ #.#.#.d ! ^ ! W E a M ~ Z ! r.! 1.F ~ U >.7.1.J s.N 3.7.1.B a.n.2.y.>.m n P 6.7.8.3.6.4.7.>.:.7.2.:.7.a.",
"d.d.f.R.Y.A.L.U.U.L.Z.{ { d ! _ z x J S d M d Q Q D L L D W ~ ;.7.F.y.4.2.7.7.F.N -.:.V.M.7.2.-.P K x.1.:.4.2.8.4.-.<.<.;.i.-.P ",
"K.d.p.A.Z.Z.Y.Y.A.S.S.v.O.$.#...- h c k h V n W W W W W L W 9.>.4.m.I 9.5.2.n.H K P F.G.G.G.7.P m Z t.t.~ U L 3.4.7.-.-.M d F D ",
"H.N.H.u.o.d.d.f.S.v.i.u.i.b.1.b.H  .I X.} s d f R W W W Q L M Q 4.Q B Q 4.L 9.4.P P 4.9.4.m.P M m S | X.Y S D D 4.4.-.c.P L m D ",
"A.N.v.A.A.s...d.d.d.d.O.d.S.~ X.Y ~ P.G.i.Y #.{ E R R K A * c N W n n W n W m ^ ~ Q 9.9.Q P B K B Z X.Y L D D m 7.6.V.n.2.P 7.:.",
"Y.P.Y.L.H.L.H.p.@.s...O.o.o.o.} G U C.B.B.V.v.~ Q W Q J c = = C W g x m C m m Q Q Q Q Q B ~ P L B S [ G F M M m P 3.c.P B B n.I ",
"S.L.L.A.f.A.J.Z.Z.p.G F X.o.' ' ..O.i.t.t.u.I K P 1.4.P :.J J D E z N K N m M L P B m B M m M M m S A S S Z D W B ^ v.1.L x.i.I ",
"A.A.A.Y.d.#.A.b.S.Y.d.! O.u.r.' ` o.O..._ } } A G X.x.;.2.B P 4.! L F M a E E ! D V C w n T W M W n n S A D d a W W u.X.X.b.t.X.",
"S.A.S.Z.Z.b.#.#.~ b.i.{ X.y.x.X...F } x V A I ..X.| ..X.I H >.P 4.3.~ Q d R R ! M f n # e i m T W p n s s d a R W W | F | v.m.t.",
"A.S.S.A.i.#.;.=.u.;.b.x.p.J e.N.e.G v * * j G | | O.X. . .C N g B 7.7.P 9.4.M d a f u 0 o + u i a p p i i f a R T W F F Y b.x.X.",
"{ X.S.S.>.h ] w.` w.v.1.Z ] 5 ` c H h * k X.X.S S Z K X. .z g g >.>.>.n.v.n.N.L d F @ 0 o @ u p i q i i s a Z d M a d S d S F F ",
"X.t.I I ;.v 5 5 c v r.x.J 5 &.z | G s A X.i.{ s d p m S V g g n J ] =.e.V.M.N.b.;.t.1.P Z s e n n i p a S a [ s i q f S F i s d ",
"v.b.b.U 1.X. .I Y G r.d.e. .e.X.;.{ [ X.i.| [ G e s s i C S g v * = c * a.y.t. .x.b.3.D.n.D n D B M M T i p V i f q d s u 0 0 % ",
"x.t.b.x.x.X.G | X.| X.X.| s.u.h Y ` z } G O.G h ) _ V t v | X.` = * c v c.I | Z X.c.I 2.B.P Z B B K B n C e e i i i p e u 0 o - ",
"X.t.t.I I I A G [ ..| | _ s. .C g t & r _ [ r @ % # h ` h z x.| h z J  .t.I J J  .n.P :.n.~ D 4.4.H <.<.<.m p M [ n N s # O % - ",
"Y X.u.J G G A C _ _ # r ` z _ Z k # + O % @ @ + O O + h k z  .j y Z G V | z J z u. .v H N N g g N -.P <.<.B B B 4.<.-.N % - u $ ",
"S I Y G G J A A e y # r j r k k _ % w r % + + X   + h ( _ h } j x Z G G G x A | A & @ J x g w b b B 1.L 4.7.P -.<.<.<.N j e 0 @ ",
"A A G _ k k j V e 2 r ( ( ( 2 r r } | X.k @ % O + * } _ } J j l j y [ | X.| z _ h + + k x g g g # N | Z B H B <.B B -.:.<.g e u ",
"C y l l t y z j w r 2 ( y ( r r r V I F A # % r % g ` h z _ h Z j Y X.} u.A z $ X r # % g g B b w n G C z _ C V N n P B B n V N ",
"s t C n e e e e w r % 2 _ _ y ( u y V A y r h N g H C k j k z J A I A t [ _ h + O V w x V n N N g A D V ) _ e S B n n N n T n g ",
"e u s e e u e w w u & r u r y r ( _ y _ l j j C g A n G w h l [ S z C j S k r x D A A n Z C G x z _ A [ _ ( y S n g n N g N g T ",
"u e y e e e w & + + @ w e s e r t ( l y j j x g z x j A x z A l C _ l l l k g _ C t _ A } C Z k k A _ z ( _ _ z C J N N g <.T g ",
"u w e p e e w + O O @ w e e u @ u y y e t t g j z l r t k k k t j j w t r t r t h e _ k } k V z t ) _ k _ ) _ A C H <.N <.N n g "
};
